# Blender v3.0.0 OBJ File: 'basesv2.blend'
# www.blender.org
mtllib 2 Side Slotted.mtl
o 2_Side_W_Slot_Cylinder.009
v 0.020000 -0.002000 -0.034641
v 0.023562 0.000000 0.021686
v 0.020000 0.002000 -0.034641
v 0.040000 -0.002000 0.000000
v 0.011438 0.000000 0.014686
v 0.040000 0.002000 0.000000
v 0.020000 -0.002000 0.034641
v 0.030562 0.000000 0.009562
v 0.020000 0.002000 0.034641
v 0.000000 0.002000 0.000000
v 0.018438 0.000000 0.002562
v -0.000000 -0.002000 0.000000
v 0.011438 0.002000 0.014686
v 0.030562 0.002000 0.009562
v 0.018438 0.002000 0.002562
v 0.023562 0.002000 0.021686
vt 0.833333 0.500000
vt 0.833333 1.000000
vt 0.666667 1.000000
vt 0.666667 0.500000
vt 0.500000 1.000000
vt 0.500000 0.500000
vt 0.750000 0.010000
vt 0.250000 0.010000
vt 0.250000 0.250000
vt 0.750000 0.250000
vt 0.457846 0.130000
vt 0.457846 0.370000
vt 0.265374 0.139375
vt 0.338120 0.181375
vt 0.307374 0.066629
vt 0.380120 0.108629
vt 0.957846 0.370000
vt 0.957846 0.130000
vt 0.410714 0.000000
vt 0.375000 0.000000
vt 0.375000 0.250000
vt 0.410714 0.250000
vt 0.375000 0.500000
vt 0.410714 0.500000
vt 0.375000 0.750000
vt 0.410714 0.750000
vt 0.375000 1.000000
vt 0.410714 1.000000
vt 0.125000 0.500000
vt 0.125000 0.750000
vn 0.8660 0.0000 -0.5000
vn 0.8660 0.0000 0.5000
vn -0.8660 0.0000 0.5000
vn 0.0000 1.0000 0.0000
vn 0.0000 -1.0000 0.0000
vn -0.8660 0.0000 -0.5000
vn 0.5000 0.0000 -0.8660
vn -0.5000 0.0000 0.8660
usemtl None
s off
f 1/1/1 3/2/1 6/3/1 4/4/1
f 4/4/2 6/3/2 9/5/2 7/6/2
f 7/7/3 9/8/3 10/9/3 12/10/3
f 10/9/4 6/11/4 3/12/4
f 10/9/4 13/13/4 15/14/4
f 16/15/4 6/11/4 14/16/4
f 12/10/5 1/17/5 4/18/5
f 7/7/5 12/10/5 4/18/5
f 1/17/6 12/10/6 10/9/6 3/12/6
f 16/19/7 2/20/7 5/21/7 13/22/7
f 13/22/2 5/21/2 11/23/2 15/24/2
f 11/23/8 8/25/8 14/26/8 15/24/8
f 8/25/6 2/27/6 16/28/6 14/26/6
f 11/23/4 5/29/4 2/30/4 8/25/4
f 15/14/4 14/16/4 6/11/4
f 9/8/4 16/15/4 13/13/4
f 15/14/4 6/11/4 10/9/4
f 10/9/4 9/8/4 13/13/4
f 16/15/4 9/8/4 6/11/4
