# Blender v3.0.0 OBJ File: 'basesv2.blend'
# www.blender.org
mtllib 4 Side Slotted.mtl
o 4_Side_W_Slot_Cylinder.005
v -0.020000 -0.002000 -0.034641
v -0.023562 0.000000 -0.021686
v -0.020000 0.002000 -0.034641
v 0.020000 -0.002000 -0.034641
v -0.011438 0.000000 -0.014686
v 0.020000 0.002000 -0.034641
v 0.040000 -0.002000 0.000000
v -0.030562 0.000000 -0.009562
v 0.040000 0.002000 0.000000
v 0.020000 -0.002000 0.034641
v -0.018438 0.000000 -0.002562
v 0.020000 0.002000 0.034641
v -0.040000 -0.002000 0.000000
v -0.040000 0.002000 0.000000
v 0.000000 0.002000 0.000000
v -0.000000 -0.002000 0.000000
v -0.018438 0.002000 -0.002562
v -0.030562 0.002000 -0.009562
v -0.011438 0.002000 -0.014686
v -0.023562 0.002000 -0.021686
v -0.024500 0.002000 -0.006062
v -0.014938 0.002000 -0.008624
v -0.021781 0.002000 -0.028164
v -0.020000 0.002000 0.000000
v -0.035281 0.002000 -0.004781
v -0.010000 0.002000 -0.017321
v -0.017500 0.002000 -0.018186
vt 1.000000 0.500000
vt 1.000000 1.000000
vt 0.833333 1.000000
vt 0.833333 0.500000
vt 0.666667 1.000000
vt 0.666667 0.500000
vt 0.500000 1.000000
vt 0.500000 0.500000
vt 0.750000 0.010000
vt 0.250000 0.010000
vt 0.250000 0.250000
vt 0.750000 0.250000
vt 0.457846 0.370000
vt 0.457846 0.130000
vt 0.166667 0.500000
vt 0.166667 1.000000
vt -0.000000 1.000000
vt -0.000000 0.500000
vt 0.750000 0.490000
vt 0.542154 0.370000
vt 0.957846 0.370000
vt 0.957846 0.130000
vt 0.198253 0.339625
vt 0.161880 0.318625
vt 0.081017 0.380686
vt 0.119880 0.391371
vt 0.221313 0.461686
vt 0.208333 0.625000
vt 0.250000 0.490000
vt 0.250000 0.370000
vt 0.375000 0.000000
vt 0.375000 0.250000
vt 0.410714 0.250000
vt 0.410714 0.125000
vt 0.410714 0.000000
vt 0.375000 0.500000
vt 0.410714 0.500000
vt 0.410714 0.375000
vt 0.375000 0.750000
vt 0.410714 0.750000
vt 0.410714 0.625000
vt 0.375000 1.000000
vt 0.410714 1.000000
vt 0.125000 0.500000
vt 0.125000 0.750000
vt 0.140880 0.354998
vt 0.042154 0.370000
vt 0.146077 0.310000
vt 0.234626 0.360625
vt 0.213626 0.396998
vt 0.192626 0.433371
vn -0.0000 0.0000 -1.0000
vn 0.8660 0.0000 -0.5000
vn 0.8660 0.0000 0.5000
vn -0.8660 0.0000 0.5000
vn 0.0000 1.0000 0.0000
vn -0.8660 0.0000 -0.5000
vn 0.0000 -1.0000 0.0000
vn 0.0000 0.0000 1.0000
vn -0.5000 0.0000 0.8660
vn 0.5000 0.0000 -0.8660
usemtl None
s off
f 1/1/1 3/2/1 6/3/1 4/4/1
f 4/4/2 6/3/2 9/5/2 7/6/2
f 7/6/3 9/5/3 12/7/3 10/8/3
f 10/9/4 12/10/4 15/11/4 16/12/4
f 6/13/5 15/11/5 9/14/5
f 13/15/6 14/16/6 3/17/6 1/18/6
f 1/19/7 16/12/7 13/20/7
f 9/14/5 15/11/5 12/10/5
f 16/12/7 4/21/7 7/22/7
f 22/23/5 17/24/5 15/11/5
f 25/25/5 18/26/5 23/27/5
f 16/12/8 15/11/8 24/28/8 14/16/8 13/20/8
f 16/12/7 1/19/7 4/21/7
f 10/9/7 16/12/7 7/22/7
f 3/29/5 26/30/5 15/11/5 6/13/5
f 2/31/9 5/32/9 19/33/9 27/34/9 20/35/9
f 5/32/6 11/36/6 17/37/6 22/38/6 19/33/6
f 17/37/10 11/36/10 8/39/10 18/40/10 21/41/10
f 18/40/3 8/39/3 2/42/3 20/43/3
f 8/39/5 11/36/5 5/44/5 2/45/5
f 21/46/5 18/26/5 25/25/5
f 25/25/5 14/47/5 24/48/5
f 15/11/5 26/30/5 19/49/5
f 26/30/5 3/29/5 23/27/5
f 19/49/5 26/30/5 27/50/5
f 23/27/5 20/51/5 27/50/5
f 23/27/5 27/50/5 26/30/5
f 25/25/5 24/48/5 21/46/5
f 24/48/5 15/11/5 17/24/5
f 17/24/5 21/46/5 24/48/5
f 19/49/5 22/23/5 15/11/5
f 18/26/5 20/51/5 23/27/5
f 23/27/5 3/29/5 14/47/5
f 14/47/5 25/25/5 23/27/5
