# Blender v3.0.0 OBJ File: 'basesv2.blend'
# www.blender.org
mtllib 6 Side Slotted.mtl
o 6_Side_W_Slot_Cylinder.007
v -0.020000 -0.002000 -0.034641
v -0.030562 0.000000 0.009562
v -0.020000 0.002000 -0.034641
v 0.020000 -0.002000 -0.034641
v -0.018438 0.000000 0.002562
v 0.020000 0.002000 -0.034641
v 0.040000 -0.002000 0.000000
v -0.023562 0.000000 0.021687
v 0.040000 0.002000 0.000000
v 0.020000 -0.002000 0.034641
v -0.011438 0.000000 0.014687
v 0.020000 0.002000 0.034641
v -0.020000 -0.002000 0.034641
v -0.020000 0.002000 0.034641
v -0.040000 -0.002000 0.000000
v -0.040000 0.002000 0.000000
v 0.000000 0.002000 0.000000
v -0.000000 -0.002000 0.000000
v -0.023562 0.002000 0.021687
v -0.030562 0.002000 0.009562
v -0.018438 0.002000 0.002562
v -0.011438 0.002000 0.014687
vt 1.000000 0.500000
vt 1.000000 1.000000
vt 0.833333 1.000000
vt 0.833333 0.500000
vt 0.666667 1.000000
vt 0.666667 0.500000
vt 0.500000 1.000000
vt 0.500000 0.500000
vt 0.333333 1.000000
vt 0.333333 0.500000
vt 0.457846 0.370000
vt 0.250000 0.250000
vt 0.457846 0.130000
vt 0.166667 1.000000
vt 0.166667 0.500000
vt -0.000000 1.000000
vt -0.000000 0.500000
vt 0.750000 0.490000
vt 0.750000 0.250000
vt 0.542154 0.370000
vt 0.542154 0.130000
vt 0.250000 0.010000
vt 0.062509 0.291998
vt 0.042154 0.370000
vt 0.042154 0.130000
vt 0.062509 0.207998
vt 0.146509 0.291998
vt 0.146509 0.207998
vt 0.957846 0.370000
vt 0.957846 0.130000
vt 0.250000 0.490000
vt 0.750000 0.010000
vt 0.410714 0.000000
vt 0.375000 0.250000
vt 0.375000 0.250000
vt 0.410714 0.000000
vt 0.375000 0.500000
vt 0.375000 0.500000
vt 0.410714 0.250000
vt 0.410714 0.250000
vt 0.375000 0.750000
vt 0.375000 0.750000
vt 0.410714 0.500000
vt 0.410714 0.500000
vt 0.410714 0.750000
vt 0.375000 1.000000
vt 0.375000 1.000000
vt 0.410714 0.750000
vt 0.125000 0.500000
vt 0.125000 0.750000
vn -0.0000 0.0000 -1.0000
vn 0.8660 0.0000 -0.5000
vn 0.8660 0.0000 0.5000
vn 0.0000 0.0000 1.0000
vn 0.0000 1.0000 0.0000
vn -0.8660 0.0000 0.5000
vn -0.8660 0.0000 -0.5000
vn 0.0000 -1.0000 0.0000
vn 0.5000 0.0000 0.8660
vn -0.5000 0.0000 -0.8660
usemtl None
s off
f 1/1/1 3/2/1 6/3/1 4/4/1
f 4/4/2 6/3/2 9/5/2 7/6/2
f 7/6/3 9/5/3 12/7/3 10/8/3
f 10/8/4 12/7/4 14/9/4 13/10/4
f 6/11/5 17/12/5 9/13/5
f 13/10/6 14/9/6 16/14/6 15/15/6
f 15/15/7 16/14/7 3/16/7 1/17/7
f 1/18/8 18/19/8 15/20/8
f 15/20/8 18/19/8 13/21/8
f 9/13/5 17/12/5 12/22/5
f 20/23/5 16/24/5 14/25/5 19/26/5
f 17/12/5 21/27/5 22/28/5
f 18/19/8 4/29/8 7/30/8
f 16/24/5 17/12/5 3/31/5
f 13/21/8 18/19/8 10/32/8
f 14/25/5 12/22/5 17/12/5
f 18/19/8 1/18/8 4/29/8
f 10/32/8 18/19/8 7/30/8
f 3/31/5 17/12/5 6/11/5
f 20/33/9 2/34/9 5/35/9 21/36/9
f 5/37/6 11/38/6 22/39/6 21/40/6
f 11/41/10 8/42/10 19/43/10 22/44/10
f 19/45/2 8/46/2 2/47/2 20/48/2
f 5/49/5 2/50/5 8/42/5 11/38/5
f 22/28/5 19/26/5 14/25/5
f 16/24/5 20/23/5 21/27/5
f 22/28/5 14/25/5 17/12/5
f 17/12/5 16/24/5 21/27/5
